<svg xmlns="http://www.w3.org/2000/svg" width="237" height="83" viewBox="0 0 237 83">
    <defs>
        <linearGradient id="linear-gradient" x1=".203" x2=".711" y1=".352" y2="1.194" gradientUnits="objectBoundingBox">
            <stop offset="0" stop-color="#46cdff"/>
            <stop offset="1" stop-color="#2dd39e"/>
        </linearGradient>
        <style>
            .cls-1{fill:none}.cls-2{fill:#fff}.cls-4{fill:#52ddac}
        </style>
    </defs>
    <g id="img_bi_wh" transform="translate(-36 -9)">
        <g id="img_bi_textstyle_wh" transform="translate(169 35)">
            <path id="사각형_444" d="M0 0H104V30H0z" class="cls-1"/>
            <g id="그룹_2944" transform="translate(3 0.999)">
                <path id="패스_3336" d="M1996.395 1912.038v-6.772h-9.255v-3.255h22.781v3.255h-9.312v6.772zm1.993-11.6c-4.983 0-8.2-2.529-8.2-6.569 0-4.069 3.217-6.6 8.2-6.6s8.173 2.529 8.173 6.6c0 4.044-3.19 6.573-8.173 6.573zm0-9.853c-2.221 0-4.072 1.1-4.072 3.284s1.851 3.255 4.072 3.255 4.073-1.076 4.073-3.255-1.852-3.279-4.073-3.279z" class="cls-2" transform="translate(-1987.14 -1885.648)"/>
                <path id="패스_3337" d="M2051.446 1911.587v-6.947a22.578 22.578 0 0 1-9.255 2.064h-3.274c-2.477 0-3.731-1.075-3.731-3.459v-7.208h8.116v-3.637h-8.116v-3.284h12.214v9.242a10.736 10.736 0 0 1-4.641.958h-3.474v2.936c0 .727.085 1.162 1.11 1.162h1.709c2.079 0 6.806-.61 9.34-2.3v-12.992h4.1v23.455z" class="cls-2" transform="translate(-2009.612 -1886.04)"/>
                <path id="패스_3338" d="M2100.877 1909.518H2078.1v-3.255h9.568v-4.622h4.13v4.622h9.083zm-20.018-20.315h13.64a2.066 2.066 0 0 1 1.965 2.964 12.8 12.8 0 0 1-3.274 4.475 3.471 3.471 0 0 1 2.221.872c1.366 1.1 2.448 1.918 3.843 3.255l-2.419 2.7a38.659 38.659 0 0 0-3.446-3.168 5.547 5.547 0 0 0-2.876-1.511 31.9 31.9 0 0 1-9.568 4.5l-1.2-3.226c4.7-1.4 9.8-4.388 11.931-7.585h-10.82z" class="cls-2" transform="translate(-2029.681 -1886.529)"/>
                <path id="패스_3339" d="M2131.188 1899.568c-3.5 0-6.436-2.238-6.436-5.668a5.146 5.146 0 0 1 .8-2.79h-1.709v-2.965h5.382a3.734 3.734 0 0 0 .114-1.685 7.562 7.562 0 0 0-.285-1.076l3.958-1.1a6.066 6.066 0 0 1 .37 2.238 4.417 4.417 0 0 1-.4 1.627h5.524v2.965h-1.737a5.167 5.167 0 0 1 .826 2.79c0 3.396-3.018 5.664-6.407 5.664zm13.27 1.453v9.475c-.057.843-.656 1.191-1.653 1.191h-11.617c-2.392 0-3.958-.9-3.958-3.342v-7.324h4.129v2.266h8.97v-2.266zm-13.27-9.533a2.432 2.432 0 1 0 0 4.853 2.43 2.43 0 1 0 0-4.853zm9.141 17.06v-2.121h-8.97v1.308c0 .552.2.813.74.813zm0-22.465h4.129v5.783h3.531v3.284h-3.531v4.912h-4.129z" class="cls-2" transform="translate(-2051.077 -1884.28)"/>
            </g>
        </g>
        <g id="img_bi_logo" transform="translate(36 9)">
            <path id="사각형_422" d="M0 0H122V83H0z" class="cls-1"/>
            <g id="그룹_3067" transform="translate(2.914 16.855)">
                <g id="그룹_3066">
                    <path id="패스_3396" fill="#00deff" d="M1434.531 1145.377a5.534 5.534 0 0 1-3.613-1.339 5.63 5.63 0 0 1-.629-7.9l8-10.42a5.553 5.553 0 0 1 7.86-.633 5.629 5.629 0 0 1 .629 7.9l-8 10.42a5.55 5.55 0 0 1-4.247 1.972z" transform="translate(-1403.957 -1102.107)"/>
                    <path id="패스_3397" d="M1389.689 1145.377a5.532 5.532 0 0 1-3.613-1.339 5.629 5.629 0 0 1-.629-7.9l8-10.42a5.553 5.553 0 0 1 7.86-.633 5.629 5.629 0 0 1 .629 7.9l-8 10.42a5.551 5.551 0 0 1-4.247 1.972z" class="cls-4" transform="translate(-1384.116 -1102.107)"/>
                    <g id="그룹_3065" transform="translate(50.003)">
                        <path id="패스_3398" fill="url(#linear-gradient)" d="M1537.921 1119.184l-27.151-32.055a5.554 5.554 0 0 0-8.489 0l-27.151 32.055a5.628 5.628 0 0 0 .629 7.9 5.553 5.553 0 0 0 7.859-.633l22.906-27.044 22.907 27.044a5.553 5.553 0 0 0 7.86.633 5.629 5.629 0 0 0 .63-7.9z" transform="translate(-1473.8 -1085.158)"/>
                    </g>
                </g>
                <rect id="사각형_552" width="4.964" height="8.214" class="cls-4" rx="2.482" transform="translate(74.19 41.076)"/>
                <rect id="사각형_553" width="4.964" height="8.214" class="cls-4" rx="2.482" transform="translate(85.52 41.076)"/>
            </g>
        </g>
    </g>
</svg>
