<svg id="img_bi_gray" xmlns="http://www.w3.org/2000/svg" width="90" height="92">
    <defs>
        <style>
            .cls-2{fill:#b2b2b2}
        </style>
    </defs>
    <path id="사각형_422" data-name="사각형 422" style="fill:none" d="M0 0h90v92H0z"/>
    <g id="그룹_3067" data-name="그룹 3067" transform="translate(2.149 12.261)">
        <g id="그룹_3066" data-name="그룹 3066">
            <path id="패스_3396" data-name="패스 3396" class="cls-2" d="M1433.07 1140.146a4.019 4.019 0 0 1-2.665-1.015 4.352 4.352 0 0 1-.464-5.993l5.9-7.9a4.021 4.021 0 0 1 5.8-.479 4.351 4.351 0 0 1 .464 5.993l-5.9 7.9a4.051 4.051 0 0 1-3.135 1.494z" transform="translate(-1410.515 -1107.338)"/>
            <path id="패스_3397" data-name="패스 3397" class="cls-2" d="M1388.228 1140.146a4.016 4.016 0 0 1-2.665-1.015 4.351 4.351 0 0 1-.464-5.993l5.9-7.9a4.02 4.02 0 0 1 5.8-.479 4.35 4.35 0 0 1 .464 5.993l-5.9 7.9a4.05 4.05 0 0 1-3.135 1.494z" transform="translate(-1384.116 -1107.338)"/>
            <g id="그룹_3065" data-name="그룹 3065" transform="translate(36.887)">
                <path id="패스_3398" data-name="패스 3398" class="cls-2" d="m1521.1 1110.957-20.029-24.3a4.027 4.027 0 0 0-6.262 0l-20.029 24.3a4.35 4.35 0 0 0 .464 5.993 4.021 4.021 0 0 0 5.8-.48l16.9-20.5 16.9 20.5a4.02 4.02 0 0 0 5.8.48 4.351 4.351 0 0 0 .456-5.993z" transform="translate(-1473.8 -1085.158)"/>
            </g>
        </g>
        <rect id="사각형_552" data-name="사각형 552" class="cls-2" width="2.523" height="4.156" rx="1.261" transform="translate(55.495 31.697)"/>
        <rect id="사각형_553" data-name="사각형 553" class="cls-2" width="2.523" height="4.156" rx="1.261" transform="translate(63.971 31.697)"/>
    </g>
    <g id="그룹_3858" data-name="그룹 3858" transform="translate(3.574 62.328)">
        <g id="그룹_3745" data-name="그룹 3745">
            <path id="패스_3996" data-name="패스 3996" class="cls-2" d="M17.9 7.038a4.655 4.655 0 0 0-1.845-3.889 7.865 7.865 0 0 0-4.941-1.429 7.907 7.907 0 0 0-4.968 1.429A4.655 4.655 0 0 0 4.3 7.038a4.623 4.623 0 0 0 1.845 3.877 7.953 7.953 0 0 0 4.968 1.417 7.912 7.912 0 0 0 4.944-1.417A4.623 4.623 0 0 0 17.9 7.038zm-4.941 14.64V16.22h7.735V13.6H1.77v2.62h7.688v5.458zM14.5 7.038a2.187 2.187 0 0 1-1.005 1.979 4.311 4.311 0 0 1-2.377.644 4.3 4.3 0 0 1-2.389-.644 2.194 2.194 0 0 1-.994-1.979 2.229 2.229 0 0 1 .994-1.979 4.183 4.183 0 0 1 2.389-.668 4.2 4.2 0 0 1 2.377.668A2.222 2.222 0 0 1 14.5 7.038zM39.926 21V2.095H36.52v10.471a8.235 8.235 0 0 1-1.869.867 20.886 20.886 0 0 1-2.153.586q-1.112.211-2.105.3t-1.632.094h-1.42q-.639 0-.781-.246a1.393 1.393 0 0 1-.142-.691v-2.362H29.3a10.544 10.544 0 0 0 1.952-.176 8.909 8.909 0 0 0 1.9-.6V2.891H23.013v2.647h6.742v2.929h-6.742v5.809a2.666 2.666 0 0 0 .769 2.12 3.477 3.477 0 0 0 2.33.668h2.72a17.9 17.9 0 0 0 1.857-.105q1.005-.105 2.023-.316a20.676 20.676 0 0 0 2.023-.515 10.612 10.612 0 0 0 1.785-.728V21zm16.133-.492v-8.949h2.011v9.417h3.241V2.095H58.07v6.7h-2.011v-6.7h-3.217v18.412zM44.137 17.6a17.342 17.342 0 0 0 5.157-5.482 16.38 16.38 0 0 0 2.153-6.583 3.768 3.768 0 0 0-.213-1.921 1.462 1.462 0 0 0-1.49-.726h-7.38v2.65h5.226q.331 0 .4.2a1.063 1.063 0 0 1 .047.457 11.886 11.886 0 0 1-2.058 5.224 16.719 16.719 0 0 1-3.779 3.724zM76.852 1.861v8.246a6.869 6.869 0 0 1-.189 1.593 2.032 2.032 0 0 1-.71 1.195h-9.675v2.483h10.574v1.171H66.278v4.006a2.019 2.019 0 0 0 .461 1.511 2.319 2.319 0 0 0 1.6.433H76.4q.923 0 1.916-.082a10.38 10.38 0 0 0 2.342-.527l-.591-2.249a9.331 9.331 0 0 1-1.067.245 8.557 8.557 0 0 1-.946.105 7.141 7.141 0 0 1-.9.035q-.426-.012-.852-.012h-6.57V18.8h9.155a1.048 1.048 0 0 0 .674-.2.989.989 0 0 0 .319-.644l.378-2.647A2.393 2.393 0 0 0 80 13.843a1.808 1.808 0 0 0-1.254-.855 2.875 2.875 0 0 0 1.1-1.195 4.021 4.021 0 0 0 .438-1.921v-1.71h2.933v-2.6h-2.935v-3.7zm-10.2.328h-3.307v7.074a2.154 2.154 0 0 0 .627 1.769 2.664 2.664 0 0 0 1.715.5h3.288a8.766 8.766 0 0 0 2.673-.422 10.245 10.245 0 0 0 2.507-1.195V2.189H70.82v2.084h-4.163zm2.366 6.747h-1.8a.759.759 0 0 1-.461-.094q-.106-.094-.106-.445v-1.57h4.169V8.42a5.192 5.192 0 0 1-.84.4 3.085 3.085 0 0 1-.958.115z" transform="translate(-1.77 -1.72)"/>
        </g>
    </g>
</svg>
