<svg xmlns="http://www.w3.org/2000/svg" width="174" height="53">
    <defs>
        <linearGradient id="linear-gradient" x1=".203" y1=".352" x2=".711" y2="1.194" gradientUnits="objectBoundingBox">
            <stop offset="0" stop-color="#46cdff"/>
            <stop offset="1" stop-color="#2dd39e"/>
        </linearGradient>
        <style>
            .cls-1{fill:none}.cls-3{fill:#52ddac}.cls-5{fill:#25262b}
        </style>
    </defs>
    <g id="img_logo_temp" transform="translate(-36 -9)">
        <g id="img_bi_logo" transform="translate(36 9)">
            <path id="사각형_422" data-name="사각형 422" class="cls-1" d="M0 0h77v53H0z"/>
            <g id="그룹_3067" data-name="그룹 3067" transform="translate(1.844 10.67)">
                <g id="그룹_3066" data-name="그룹 3066">
                    <path id="패스_3396" data-name="패스 3396" d="M1432.486 1137.437a3.5 3.5 0 0 1-2.287-.848 3.564 3.564 0 0 1-.4-5l5.064-6.6a3.515 3.515 0 0 1 4.975-.4 3.563 3.563 0 0 1 .4 5l-5.064 6.6a3.513 3.513 0 0 1-2.688 1.248z" transform="translate(-1413.132 -1110.046)" style="fill:#00deff"/>
                    <path id="패스_3397" data-name="패스 3397" class="cls-3" d="M1387.644 1137.437a3.5 3.5 0 0 1-2.287-.848 3.563 3.563 0 0 1-.4-5l5.064-6.6a3.515 3.515 0 0 1 4.975-.4 3.563 3.563 0 0 1 .4 5l-5.064 6.6a3.514 3.514 0 0 1-2.688 1.248z" transform="translate(-1384.116 -1110.046)"/>
                    <g id="그룹_3065" data-name="그룹 3065" transform="translate(31.653)">
                        <path id="패스_3398" data-name="패스 3398" d="m1514.39 1106.7-17.187-20.292a3.516 3.516 0 0 0-5.374 0l-17.187 20.292a3.563 3.563 0 0 0 .4 5 3.515 3.515 0 0 0 4.975-.4l14.5-17.119 14.5 17.119a3.515 3.515 0 0 0 4.976.4 3.564 3.564 0 0 0 .397-5z" transform="translate(-1473.8 -1085.158)" style="fill:url(#linear-gradient)"/>
                    </g>
                </g>
                <rect id="사각형_552" data-name="사각형 552" class="cls-3" width="3.142" height="5.2" rx="1.571" transform="translate(46.964 26.002)"/>
                <rect id="사각형_553" data-name="사각형 553" class="cls-3" width="3.142" height="5.2" rx="1.571" transform="translate(54.136 26.002)"/>
            </g>
        </g>
        <g id="img_bi_textstyle" transform="translate(123 23)">
            <path id="사각형_444" data-name="사각형 444" class="cls-1" d="M0 0h87v25H0z"/>
            <g id="그룹_2944" data-name="그룹 2944" transform="translate(2.462 .819)">
                <g id="그룹_3745" data-name="그룹 3745">
                    <path id="패스_3955" data-name="패스 3955" class="cls-5" d="M1719.608 1219.417v-5.647h-7.758v-2.714h19.1v2.714h-7.806v5.647zm1.671-9.67c-4.177 0-6.875-2.109-6.875-5.477 0-3.393 2.7-5.5 6.875-5.5s6.85 2.109 6.85 5.5c0 3.369-2.673 5.477-6.85 5.477zm0-8.216c-1.862 0-3.414.921-3.414 2.738s1.552 2.714 3.414 2.714 3.413-.9 3.413-2.714-1.551-2.738-3.413-2.738z" transform="translate(-1711.85 -1197.411)"/>
                    <path id="패스_3956" data-name="패스 3956" class="cls-5" d="M1773.672 1219.185v-5.792a19.016 19.016 0 0 1-7.758 1.72h-2.745c-2.077 0-3.127-.9-3.127-2.884v-6.01h6.8v-3.029h-6.8v-2.739h10.24v7.707a9.031 9.031 0 0 1-3.891.8h-2.912v2.448c0 .606.072.97.931.97h1.432c1.743 0 5.705-.509 7.829-1.914v-10.834h3.437v19.558z" transform="translate(-1738.607 -1197.882)"/>
                    <path id="패스_3957" data-name="패스 3957" class="cls-5" d="M1815.643 1201.459h-1.552a4.357 4.357 0 0 1 .788 2.5 5.1 5.1 0 0 1-5.371 4.847c-2.936 0-5.395-1.987-5.395-4.847a4.462 4.462 0 0 1 .764-2.5h-1.528v-2.472h4.511a3.1 3.1 0 0 0 .1-1.406 6.309 6.309 0 0 0-.238-.9l3.318-.921a5.029 5.029 0 0 1 .311 1.865 3.655 3.655 0 0 1-.335 1.358h4.631zm4.511 16.165c-.048.7-.549.994-1.385.994h-9.834c-2 0-3.008-.508-3.008-2.544v-5.841h10.173a3.155 3.155 0 0 0 1.075-2.69v-10.276h3.461v4.993h2.96v2.74h-2.96v2.3a3.319 3.319 0 0 1-1.551 2.981c1.05.145 1.575.823 1.456 2.229zm-10.646-15.8a2.145 2.145 0 1 0 0 4.29 2.145 2.145 0 1 0 0-4.29zm7.543 14.057v-2.933h-7.662v2.35c0 .461.12.582.573.582z" transform="translate(-1762.651 -1195.764)"/>
                    <path id="패스_3958" data-name="패스 3958" class="cls-5" d="M1850.416 1212.229a12.439 12.439 0 0 0 3.342-8.313c.024-.339.024-.727-.453-.727h-2.554v-2.739h9.237c1.241 0 1.718.364 1.671 1.987-.024 1.43-.1 2.69-.214 3.878h1.6v-6.689h2.983v19.074h-2.983v-9.476h-2.124a15.59 15.59 0 0 1-3.748 6.761l-2.029-1.939c2.6-3.272 3.223-6.2 3.461-10.13.024-.339.024-.727-.454-.727h-1.288a15.463 15.463 0 0 1-4.464 11.124zm16.9 6.956v-19.558h3.031v19.558z" transform="translate(-1788.783 -1197.882)"/>
                </g>
            </g>
        </g>
    </g>
</svg>
