<svg id="img_bi_gray" xmlns="http://www.w3.org/2000/svg" width="90" height="92">
    <defs>
        <style>
            .cls-2{fill:#b2b2b2}
        </style>
    </defs>
    <path id="사각형_422" data-name="사각형 422" style="fill:none" d="M0 0h90v92H0z"/>
    <g id="그룹_3067" data-name="그룹 3067" transform="translate(2.149 12.261)">
        <g id="그룹_3066" data-name="그룹 3066">
            <path id="패스_3396" data-name="패스 3396" class="cls-2" d="M1433.07 1140.146a4.019 4.019 0 0 1-2.666-1.015 4.352 4.352 0 0 1-.464-5.993l5.9-7.9a4.021 4.021 0 0 1 5.8-.479 4.351 4.351 0 0 1 .464 5.993l-5.9 7.9a4.05 4.05 0 0 1-3.134 1.494z" transform="translate(-1410.515 -1107.338)"/>
            <path id="패스_3397" data-name="패스 3397" class="cls-2" d="M1388.228 1140.146a4.017 4.017 0 0 1-2.665-1.015 4.351 4.351 0 0 1-.464-5.993l5.9-7.9a4.021 4.021 0 0 1 5.8-.479 4.351 4.351 0 0 1 .464 5.993l-5.9 7.9a4.05 4.05 0 0 1-3.135 1.494z" transform="translate(-1384.116 -1107.338)"/>
            <g id="그룹_3065" data-name="그룹 3065" transform="translate(36.887)">
                <path id="패스_3398" data-name="패스 3398" class="cls-2" d="m1521.1 1110.957-20.029-24.3a4.027 4.027 0 0 0-6.262 0l-20.029 24.3a4.35 4.35 0 0 0 .464 5.993 4.021 4.021 0 0 0 5.8-.48l16.9-20.5 16.9 20.5a4.02 4.02 0 0 0 5.8.48 4.351 4.351 0 0 0 .456-5.993z" transform="translate(-1473.8 -1085.158)"/>
            </g>
        </g>
        <rect id="사각형_552" data-name="사각형 552" class="cls-2" width="2.523" height="4.156" rx="1.261" transform="translate(55.495 31.697)"/>
        <rect id="사각형_553" data-name="사각형 553" class="cls-2" width="2.523" height="4.156" rx="1.261" transform="translate(63.971 31.697)"/>
    </g>
    <g id="그룹_3892" data-name="그룹 3892" transform="translate(2.339 57.5)">
        <path id="패스_4007" data-name="패스 4007" class="cls-2" d="M1386.573 1023.345v-3.845h-5.419v-1.849h13.338v1.849h-5.452v3.847zm1.167-6.588c-2.918 0-4.8-1.436-4.8-3.731 0-2.311 1.884-3.748 4.8-3.748s4.785 1.437 4.785 3.748c-.001 2.295-1.868 3.731-4.785 3.731zm0-5.6c-1.3 0-2.384.627-2.384 1.866s1.084 1.849 2.384 1.849 2.384-.611 2.384-1.849-1.084-1.863-2.384-1.863z" transform="translate(-1381.154 -1008.172)"/>
        <path id="패스_4008" data-name="패스 4008" class="cls-2" d="M1426.257 1023.236v-3.945a13.559 13.559 0 0 1-5.419 1.172h-1.917c-1.451 0-2.184-.611-2.184-1.965v-4.098h4.751v-2.064h-4.751v-1.866h7.152v5.25a6.451 6.451 0 0 1-2.718.545h-2.034v1.667c0 .413.05.66.65.66h1a12.232 12.232 0 0 0 5.469-1.3v-7.38h2.4v13.324z" transform="translate(-1401.767 -1008.541)"/>
        <path id="패스_4009" data-name="패스 4009" class="cls-2" d="M1448.872 1019.109a9.231 9.231 0 0 0 4.118-6.307c.033-.247 0-.462-.317-.462h-3.684v-1.866h5.2c1.1 0 1.317.743 1.2 1.866a11.683 11.683 0 0 1-5.151 8.5zm7.5 3.781v-12.977h2.267v4.722h1.417v-4.722h2.284v13.307h-2.284v-6.637h-1.417v6.307z" transform="translate(-1420.381 -1008.541)"/>
        <path id="패스_4010" data-name="패스 4010" class="cls-2" d="M1486.631 1011.217h2.935v-1.47h2.35v5.448a6.838 6.838 0 0 1-3.651 1.139h-2.317c-1.017 0-1.651-.429-1.651-1.6v-4.986h2.334zm9.6-1.7v2.609h2.067v1.833h-2.067v1.205a2.466 2.466 0 0 1-1.084 2.2 1.351 1.351 0 0 1 1.067 1.635l-.267 1.866a.621.621 0 0 1-.7.594h-6.447v.859h4.635a8.684 8.684 0 0 0 2.651-.264l.417 1.585a8.614 8.614 0 0 1-3 .43h-5.686c-1.05 0-1.45-.363-1.45-1.37v-2.824h7.452v-.825h-7.452v-1.75h6.818a2.516 2.516 0 0 0 .634-1.965v-5.812zm-6.669 4.623v-1.123h-2.935v1.106c0 .314.083.38.4.38h1.267a2.159 2.159 0 0 0 1.272-.364z" transform="translate(-1440.902 -1008.311)"/>
        <path id="패스_4011" data-name="패스 4011" class="cls-2" d="M1526.931 1023.711c-4.2-.644-5.585-3.616-5.585-8.552 0-4.788 1.351-7.941 5.585-8.536v2.015c-2.884.743-3.268 4.078-3.268 6.521 0 2.41.383 5.745 3.268 6.521z" transform="translate(-1462.363 -1006.623)"/>
        <path id="패스_4012" data-name="패스 4012" class="cls-2" d="M1542.219 1023.945v-4.061h-5.419v-1.849h13.338v1.849h-5.468v4.061zm-3.8-13.637h8.069a1.036 1.036 0 0 1 1.034 1.6 5.971 5.971 0 0 1-1.45 1.865 1.333 1.333 0 0 1 .65.231c.8.611 1.467 1.189 2.351 1.981l-1.367 1.47c-.767-.677-1.4-1.255-2.084-1.8a2.326 2.326 0 0 0-1.3-.611 21.039 21.039 0 0 1-5.719 2.344l-.667-1.932c3.051-.875 5.118-1.849 6.585-3.285h-6.1z" transform="translate(-1471.315 -1008.772)"/>
        <path id="패스_4013" data-name="패스 4013" class="cls-2" d="M1570.679 1021.68c2.884-.776 3.267-4.111 3.267-6.521 0-2.443-.383-5.779-3.267-6.521v-2.015c4.234.595 5.585 3.748 5.585 8.536 0 4.936-1.384 7.908-5.585 8.552z" transform="translate(-1490.941 -1006.623)"/>
    </g>
</svg>
