<svg xmlns="http://www.w3.org/2000/svg" id="img_bi_textstyle_wh" width="134" height="38" viewBox="0 0 134 38">
    <defs>
        <style>
            .cls-2{fill:#fff}
        </style>
    </defs>
    <path id="사각형_444" fill="none" d="M0 0H134V38H0z"/>
    <g id="그룹_2944" transform="translate(3 0.999)">
        <path id="패스_3336" d="M1999.26 1919.266v-8.748h-12.12v-4.2h29.833v4.2h-12.194v8.748zm2.61-14.98c-6.526 0-10.739-3.267-10.739-8.486 0-5.256 4.214-8.523 10.739-8.523s10.7 3.267 10.7 8.523c.003 5.218-4.17 8.485-10.7 8.485zm0-12.728c-2.909 0-5.333 1.426-5.333 4.242s2.424 4.205 5.333 4.205 5.333-1.39 5.333-4.205-2.424-4.243-5.333-4.243z" class="cls-2" transform="translate(-1987.14 -1885.173)"/>
        <path id="패스_3337" d="M2056.479 1918.433v-8.974a29.908 29.908 0 0 1-12.12 2.666h-4.288c-3.244 0-4.886-1.389-4.886-4.468v-9.312h10.628v-4.693h-10.628v-4.242h16v11.94a14.221 14.221 0 0 1-6.078 1.239h-4.55v3.793c0 .939.112 1.5 1.454 1.5h2.238c2.722 0 8.912-.788 12.232-2.965v-16.784h5.37v30.3z" class="cls-2" transform="translate(-2001.695 -1885.429)"/>
        <path id="패스_3338" d="M2107.929 1915.448H2078.1v-4.205h12.53v-5.971h5.408v5.971h11.9zm-26.215-26.245h17.862a2.674 2.674 0 0 1 2.573 3.83 16.549 16.549 0 0 1-4.288 5.782 4.578 4.578 0 0 1 2.909 1.127c1.789 1.427 3.207 2.478 5.033 4.206l-3.168 3.492a50.343 50.343 0 0 0-4.513-4.093 7.294 7.294 0 0 0-3.766-1.952 42.042 42.042 0 0 1-12.53 5.82l-1.566-4.167c6.153-1.8 12.828-5.67 15.625-9.8h-14.17z" class="cls-2" transform="translate(-2014.694 -1885.748)"/>
        <path id="패스_3339" d="M2133.463 1904.03c-4.587 0-8.429-2.891-8.429-7.322a6.582 6.582 0 0 1 1.045-3.6h-2.238v-3.83h7.048a4.763 4.763 0 0 0 .149-2.177 9.717 9.717 0 0 0-.373-1.39l5.183-1.427a7.744 7.744 0 0 1 .485 2.891 5.634 5.634 0 0 1-.522 2.1h7.235v3.83h-2.275a6.61 6.61 0 0 1 1.081 3.6c.001 4.395-3.952 7.325-8.389 7.325zm17.377 1.877v12.24c-.075 1.088-.858 1.539-2.164 1.539h-15.213c-3.133 0-5.183-1.164-5.183-4.318v-9.462h5.407v2.928h11.747v-2.928zm-17.377-12.315c-2.051 0-3.394 1.2-3.394 3.116 0 1.99 1.343 3.154 3.394 3.154 2.088 0 3.356-1.164 3.356-3.154 0-1.914-1.269-3.116-3.356-3.116zm11.97 22.039v-2.741h-11.747v1.69c0 .713.261 1.051.969 1.051zm0-29.023h5.407v7.471h4.624v4.242h-4.624v6.345h-5.407z" class="cls-2" transform="translate(-2028.552 -1884.28)"/>
    </g>
</svg>
