<svg xmlns="http://www.w3.org/2000/svg" width="237" height="83" viewBox="0 0 237 83">
    <defs>
        <linearGradient id="linear-gradient" x1=".203" x2=".711" y1=".352" y2="1.194" gradientUnits="objectBoundingBox">
            <stop offset="0" stop-color="#46cdff"/>
            <stop offset="1" stop-color="#2dd39e"/>
        </linearGradient>
        <style>
            .cls-1{fill:none}.cls-3{fill:#52ddac}.cls-5{fill:#25262b}
        </style>
    </defs>
    <g id="img_bi_bk" transform="translate(-36 -9)">
        <g id="img_bi_logo" transform="translate(36 9)">
            <path id="사각형_422" d="M0 0H122V83H0z" class="cls-1"/>
            <g id="그룹_3067" transform="translate(2.914 16.855)">
                <g id="그룹_3066">
                    <path id="패스_3396" fill="#00deff" d="M1434.531 1145.377a5.534 5.534 0 0 1-3.613-1.339 5.63 5.63 0 0 1-.629-7.9l8-10.42a5.553 5.553 0 0 1 7.86-.633 5.629 5.629 0 0 1 .629 7.9l-8 10.42a5.55 5.55 0 0 1-4.247 1.972z" transform="translate(-1403.957 -1102.107)"/>
                    <path id="패스_3397" d="M1389.689 1145.377a5.532 5.532 0 0 1-3.613-1.339 5.629 5.629 0 0 1-.629-7.9l8-10.42a5.553 5.553 0 0 1 7.86-.633 5.629 5.629 0 0 1 .629 7.9l-8 10.42a5.551 5.551 0 0 1-4.247 1.972z" class="cls-3" transform="translate(-1384.116 -1102.107)"/>
                    <g id="그룹_3065" transform="translate(50.003)">
                        <path id="패스_3398" fill="url(#linear-gradient)" d="M1537.921 1119.184l-27.151-32.055a5.554 5.554 0 0 0-8.489 0l-27.151 32.055a5.628 5.628 0 0 0 .629 7.9 5.553 5.553 0 0 0 7.859-.633l22.906-27.044 22.907 27.044a5.553 5.553 0 0 0 7.86.633 5.629 5.629 0 0 0 .63-7.9z" transform="translate(-1473.8 -1085.158)"/>
                    </g>
                </g>
                <rect id="사각형_552" width="4.964" height="8.214" class="cls-3" rx="2.482" transform="translate(74.19 41.076)"/>
                <rect id="사각형_553" width="4.964" height="8.214" class="cls-3" rx="2.482" transform="translate(85.52 41.076)"/>
            </g>
        </g>
        <g id="img_bi_textstyle" transform="translate(169 35)">
            <path id="사각형_444" d="M0 0H104V30H0z" class="cls-1"/>
            <g id="그룹_2944" transform="translate(2.943 1)">
                <path id="패스_3336" d="M1996.408 1912.038v-6.772h-9.268v-3.255h22.812v3.255h-9.324v6.772zm2-11.6c-4.99 0-8.212-2.529-8.212-6.569 0-4.068 3.222-6.6 8.212-6.6s8.184 2.529 8.184 6.6c-.004 4.044-3.198 6.573-8.192 6.573zm0-9.853c-2.224 0-4.078 1.1-4.078 3.284s1.854 3.255 4.078 3.255 4.078-1.076 4.078-3.255-1.858-3.279-4.086-3.279z" class="cls-5" transform="translate(-1987.14 -1885.648)"/>
                <path id="패스_3337" d="M2051.469 1911.587v-6.947a22.636 22.636 0 0 1-9.268 2.064h-3.279c-2.481 0-3.736-1.075-3.736-3.459v-7.208h8.127v-3.637h-8.127v-3.284h12.233v9.242a10.759 10.759 0 0 1-4.647.959h-3.479v2.936c0 .727.085 1.162 1.112 1.162h1.711c2.082 0 6.815-.61 9.353-2.3v-12.992h4.106v23.455z" class="cls-5" transform="translate(-2009.577 -1886.039)"/>
                <path id="패스_3338" d="M2100.909 1909.518H2078.1v-3.255h9.582v-4.622h4.135v4.622h9.1zm-20.046-20.315h13.659a2.066 2.066 0 0 1 1.967 2.964 12.8 12.8 0 0 1-3.279 4.475 3.478 3.478 0 0 1 2.224.872c1.368 1.1 2.452 1.918 3.849 3.255l-2.423 2.7a38.625 38.625 0 0 0-3.451-3.168 5.553 5.553 0 0 0-2.88-1.511 31.972 31.972 0 0 1-9.581 4.5l-1.2-3.226c4.7-1.4 9.809-4.389 11.948-7.586h-10.835z" class="cls-5" transform="translate(-2029.615 -1886.528)"/>
                <path id="패스_3339" d="M2131.2 1899.568c-3.508 0-6.445-2.238-6.445-5.667a5.142 5.142 0 0 1 .8-2.79h-1.711v-2.965h5.39a3.734 3.734 0 0 0 .114-1.685 7.569 7.569 0 0 0-.285-1.076l3.964-1.1a6.051 6.051 0 0 1 .371 2.238 4.4 4.4 0 0 1-.4 1.628h5.532v2.965h-1.74a5.163 5.163 0 0 1 .827 2.79c-.003 3.394-3.025 5.662-6.417 5.662zm13.288 1.453v9.475c-.057.843-.656 1.191-1.655 1.191H2131.2c-2.4 0-3.964-.9-3.964-3.342v-7.324h4.134v2.267h8.983v-2.267zm-13.288-9.533a2.432 2.432 0 1 0 0 4.853 2.43 2.43 0 1 0 0-4.853zm9.153 17.06v-2.122h-8.983v1.308c0 .552.2.813.741.813zm0-22.465h4.135v5.783h3.536v3.284h-3.536v4.912h-4.135z" class="cls-5" transform="translate(-2050.977 -1884.28)"/>
            </g>
        </g>
    </g>
</svg>
